<svg height="16" viewBox="0 0 16 16" width="16" xmlns="http://www.w3.org/2000/svg"><path d="m2 4v10h10v-3c0-.5522847.4477153-1 1-1s1 .4477153 1 1v4c0 .5522847-.4477153 1-1 1h-12c-.55228475 0-1-.4477153-1-1v-12c0-.55228475.44771525-1 1-1h4c.55228475 0 1 .44771525 1 1s-.44771525 1-1 1zm5.70710678 5.70710678c-.39052429.39052432-1.02368927.39052432-1.41421356 0-.39052429-.39052429-.39052429-1.02368927 0-1.41421356l6.30076158-6.29750241h-3.57752265c-.55101196 0-.9976954-.44668344-.9976954-.9976954s.44668344-.99769541.9976954-.99769541h5.98617245c.2553325 0 .510665.09740607.7054772.29221822.1948121.19481215.2922182.45014467.2922182.70547719v5.98617244c0 .55101196-.4466834.9976954-.9976954.9976954s-.9976954-.44668344-.9976954-.9976954v-3.57752266z" fill="#15b67c" fill-rule="evenodd"/></svg>
