<svg height="16" viewBox="0 0 16 16" width="16" xmlns="http://www.w3.org/2000/svg"><path d="m5.3541756 8c-.83042071-.73294445-1.3541756-1.80530747-1.3541756-3v-3h-.5c-.55228475 0-1-.44771525-1-1s.44771525-1 1-1h9c.5522847 0 1 .44771525 1 1s-.4477153 1-1 1h-.5v3c0 1.19469253-.5237549 2.26705555-1.3541756 3 .8304207.73294445 1.3541756 1.80530747 1.3541756 3v3h.5c.5522847 0 1 .4477153 1 1s-.4477153 1-1 1h-9c-.55228475 0-1-.4477153-1-1s.44771525-1 1-1h.5v-3c0-1.19469253.52375489-2.26705555 1.3541756-3zm.6458244-6v2l.21114562.10557281c1.12610996.56305498 2.4515988.56305498 3.57770876 0l.21114562-.10557281v-2zm2 7c-1.1045695 0-2 .8954305-2 2v1l.21114562-.1055728c1.12610996-.563055 2.4515988-.563055 3.57770876 0l.21114562.1055728v-1c0-1.1045695-.8954305-2-2-2z" fill="#3297d3" fill-rule="evenodd"/></svg>
