<svg height="16" viewBox="0 0 16 16" width="16" xmlns="http://www.w3.org/2000/svg"><path d="m10.1154292 1.30808542 5.6343295 11.26865908c.5842312 1.1684623.1106182 2.5893012-1.0578441 3.1735324-.3284502.1642251-.6906256.2497231-1.0578441.2497231h-11.26865911c-1.30638064 0-2.36541139-1.0590308-2.36541139-2.3654114 0-.3672185.08549801-.7293939.24972313-1.0578441l5.63432953-11.26865908c.58423118-1.16846237 2.00507003-1.64207532 3.17353239-1.05784414.45777192.22888596.82895817.60007221 1.05784415 1.05784414zm-2.1154292 9.19191458c-.82842712 0-1.5.6715729-1.5 1.5s.67157288 1.5 1.5 1.5 1.5-.6715729 1.5-1.5-.67157288-1.5-1.5-1.5zm0-1.5c.55228475 0 1-.31979661 1-.71428571v-3.57142858c0-.3944891-.44771525-.71428571-1-.71428571s-1 .31979661-1 .71428571v3.57142858c0 .3944891.44771525.71428571 1 .71428571z" fill="#e39f48" fill-rule="evenodd"/></svg>
