<svg height="16" viewBox="0 0 16 16" width="16" xmlns="http://www.w3.org/2000/svg"><path d="m8 16c-4.418278 0-8-3.581722-8-8s3.581722-8 8-8 8 3.581722 8 8-3.581722 8-8 8zm-3.47653436-3.1092521c.98081887.6984611 2.18070393 1.1092521 3.47653436 1.1092521 3.3137085 0 6-2.6862915 6-6 0-1.29583043-.410791-2.49571549-1.1092521-3.47653436zm-1.41421356-1.4142135 8.36728232-8.36728232c-.9808189-.69846111-2.18070397-1.10925208-3.4765344-1.10925208-3.3137085 0-6 2.6862915-6 6 0 1.29583043.41079097 2.4957155 1.10925208 3.4765344z" fill="#e25950"/></svg>
